<svg xmlns="http://www.w3.org/2000/svg" version="1.1" xmlns:xlink="http://www.w3.org/1999/xlink" xmlns:svgjs="http://svgjs.com/svgjs" width="1440" height="560" preserveAspectRatio="none" viewBox="0 0 1440 560">
    <g mask="url(&quot;#SvgjsMask3406&quot;)" fill="none">
        <rect width="1440" height="560" x="0" y="0" fill="url(#SvgjsLinearGradient3407)"></rect>
        <path d="M1536 560L0 560 L0 400.02Q59.07 339.09, 120 398.16Q131.48 337.64, 192 349.12Q268.5 305.62, 312 382.12Q382.25 332.38, 432 402.63Q452.64 351.27, 504 371.91Q546.34 342.25, 576 384.6Q645.09 333.69, 696 402.77Q735.6 322.37, 816 361.96Q861.85 335.81, 888 381.66Q932.9 306.57, 1008 351.47Q1052.93 324.4, 1080 369.33Q1155.03 324.36, 1200 399.39Q1242.7 370.09, 1272 412.79Q1280.15 348.94, 1344 357.09Q1386.54 327.63, 1416 370.17Q1489.53 323.7, 1536 397.22z" fill="rgba(213, 217, 225, 1)"></path>
        <path d="M1512 560L0 560 L0 452.38Q28.03 408.41, 72 436.45Q101.36 393.81, 144 423.17Q222.63 381.8, 264 460.42Q286.89 411.31, 336 434.21Q391.8 418, 408 473.8Q440.88 386.68, 528 419.56Q599.68 371.25, 648 442.93Q666.75 389.68, 720 408.43Q766.75 383.18, 792 429.92Q846.03 411.95, 864 465.97Q888 417.98, 936 441.98Q957.88 391.86, 1008 413.73Q1073.59 359.32, 1128 424.91Q1208.62 385.53, 1248 466.15Q1295.54 393.69, 1368 441.23Q1410.76 411.99, 1440 454.74Q1453.04 395.77, 1512 408.81z" fill="rgba(207, 210, 215, 1)"></path>
        <path d="M1488 560L0 560 L0 486.78Q25.69 440.47, 72 466.16Q157.06 431.22, 192 516.28Q212.4 464.68, 264 485.08Q289.72 438.8, 336 464.52Q395.47 451.99, 408 511.46Q428.04 459.5, 480 479.54Q529.45 409, 600 458.45Q660.34 446.79, 672 507.13Q738.39 453.52, 792 519.92Q814.63 470.54, 864 493.17Q907.01 464.19, 936 507.2Q974.58 425.78, 1056 464.36Q1125.13 413.49, 1176 482.62Q1232.92 467.55, 1248 524.47Q1277.54 434, 1368 463.54Q1446.14 421.69, 1488 499.83z" fill="rgba(217, 221, 226, 1)"></path>
        <path d="M1488 560L0 560 L0 578.48Q41.07 499.55, 120 540.61Q141.06 489.67, 192 510.74Q236.61 483.35, 264 527.96Q323.31 515.27, 336 574.58Q363.74 530.32, 408 558.05Q453.32 483.37, 528 528.68Q596.71 477.39, 648 546.1Q693.14 519.24, 720 564.38Q758.17 482.55, 840 520.71Q889.55 498.26, 912 547.81Q982.91 498.72, 1032 569.64Q1046.07 511.7, 1104 525.77Q1177.85 479.62, 1224 553.46Q1253.97 511.43, 1296 541.4Q1346.79 472.19, 1416 522.99Q1444.63 479.62, 1488 508.25z" fill="rgba(159, 187, 181, 0.48)"></path>
    </g>
    <defs>
        <mask id="SvgjsMask3406">
            <rect width="1440" height="560" fill="#ffffff"></rect>
        </mask>
        <linearGradient x1="100%" y1="50%" x2="0%" y2="50%" gradientUnits="userSpaceOnUse" id="SvgjsLinearGradient3407">
            <stop stop-color="rgba(145, 223, 255, 0.92)" offset="0"></stop>
            <stop stop-color="rgba(255, 255, 255, 1)" offset="1"></stop>
        </linearGradient>
    </defs>
</svg>